<?xml version="1.0" standalone="no"?>
<!DOCTYPE svg PUBLIC "-//W3C//DTD SVG 20010904//EN"
 "http://www.w3.org/TR/2001/REC-SVG-20010904/DTD/svg10.dtd">
<svg version="1.0" xmlns="http://www.w3.org/2000/svg"
 width="1755.000000pt" height="1241.000000pt" viewBox="0 0 1755.000000 1241.000000"
 preserveAspectRatio="xMidYMid meet">

<g transform="translate(0.000000,1241.000000) scale(0.100000,-0.100000)"
fill="#000000" stroke="none">
<path d="M0 6200 l0 -6200 8775 0 8775 0 0 6200 0 6200 -8775 0 -8775 0 0
-6200z m6394 1318 c106 -35 198 -115 231 -201 13 -35 16 -65 13 -119 -9 -139
-101 -319 -318 -619 -217 -300 -202 -277 -177 -273 12 2 137 24 277 48 140 25
298 52 350 61 52 8 110 18 128 21 29 4 37 14 81 103 146 291 363 614 532 795
63 68 86 82 119 71 19 -6 80 -98 80 -121 0 -6 -60 -71 -133 -145 -181 -183
-357 -420 -456 -616 l-31 -62 58 -7 c31 -3 70 -12 87 -18 27 -11 33 -10 73 21
89 68 159 66 208 -6 29 -44 31 -83 3 -127 -27 -44 -143 -151 -223 -205 -56
-38 -65 -49 -70 -82 -4 -22 -4 -55 0 -75 23 -125 106 -152 239 -79 53 30 60
38 70 78 16 59 34 94 128 233 88 131 127 204 127 234 0 11 6 22 13 25 36 13
127 -75 127 -122 0 -20 -38 -86 -125 -216 -126 -190 -159 -255 -137 -277 19
-19 83 7 184 74 129 87 236 197 363 376 100 141 153 202 175 202 14 0 40 -30
40 -47 0 -8 -22 -35 -49 -59 -61 -55 -100 -130 -186 -358 -37 -98 -89 -228
-115 -290 l-48 -111 51 -6 c29 -3 69 -11 89 -18 49 -16 124 -101 89 -101 -5 0
-15 7 -22 17 -27 32 -91 53 -164 53 l-71 0 -33 -67 c-88 -180 -215 -367 -318
-469 -172 -170 -384 -223 -497 -124 -47 41 -60 78 -54 153 6 70 28 120 86 194
101 128 368 273 602 328 l75 18 53 113 c65 138 125 285 119 291 -3 2 -26 -14
-52 -37 -105 -91 -262 -180 -318 -180 -41 0 -82 25 -107 65 -12 19 -23 35 -26
35 -2 0 -26 -14 -53 -31 -169 -103 -331 -88 -391 37 -46 95 -24 247 56 380 19
33 47 71 62 87 17 18 22 31 16 37 -17 17 -128 24 -154 10 -15 -8 -46 -60 -90
-153 -122 -257 -183 -437 -196 -584 -4 -40 -10 -76 -14 -78 -4 -3 -23 6 -41
18 -32 21 -34 27 -37 87 -6 121 65 378 159 579 27 57 49 107 49 111 0 16 -199
-29 -535 -120 -99 -27 -214 -56 -255 -65 l-75 -16 -89 -135 c-176 -269 -245
-427 -253 -586 -5 -82 -8 -98 -22 -98 -26 0 -119 68 -135 99 -42 80 55 324
240 606 32 50 60 93 62 97 2 3 -16 15 -40 26 -44 19 -101 75 -120 118 -16 34
-4 40 32 14 40 -29 112 -50 164 -50 l41 1 110 156 c225 319 328 481 390 608
70 143 85 195 85 283 0 70 -26 117 -80 144 -49 25 -190 24 -297 -2 -444 -106
-962 -500 -1150 -874 -140 -279 -100 -494 92 -489 208 6 461 222 653 556 29
51 57 94 62 95 39 14 -50 -180 -158 -343 -89 -135 -244 -290 -332 -334 -116
-56 -213 -57 -326 -1 -74 36 -162 120 -192 182 -43 88 -25 232 48 384 156 324
591 665 1053 823 228 78 387 93 521 49z m4871 -14 c25 -53 25 -132 0 -150 -46
-34 -92 -37 -370 -25 -663 30 -870 26 -1099 -20 -425 -86 -762 -308 -908 -598
-51 -102 -71 -199 -66 -316 3 -85 7 -99 34 -137 108 -155 334 -150 568 12 136
94 337 325 402 463 18 37 44 50 44 22 0 -27 -57 -143 -113 -228 -108 -167
-239 -295 -377 -370 -84 -46 -165 -67 -260 -67 -185 0 -337 85 -407 228 -26
52 -28 66 -27 167 1 86 6 123 23 170 117 322 496 576 1047 699 239 54 546 86
830 86 299 0 521 28 599 75 53 32 60 31 80 -11z m-667 -348 c17 -27 32 -56 32
-65 0 -9 -24 -36 -54 -60 -188 -149 -526 -633 -670 -958 -87 -196 -146 -404
-146 -515 0 -53 -5 -60 -35 -46 -39 18 -49 49 -42 141 24 307 314 944 617
1352 133 179 202 239 245 211 11 -7 35 -34 53 -60z m447 -6 c54 -26 80 -73 71
-124 -11 -56 -67 -157 -143 -254 -87 -113 -333 -362 -517 -527 l-146 -130 -25
-78 c-14 -43 -25 -83 -25 -89 0 -5 21 18 47 53 99 136 314 318 463 393 79 39
92 38 156 -11 79 -60 83 -117 16 -205 -118 -154 -133 -175 -148 -215 -10 -24
-14 -53 -10 -68 10 -40 73 -35 161 14 l70 38 -3 40 c-7 91 38 226 110 330 66
97 191 193 251 193 53 0 117 -69 117 -127 0 -49 -80 -142 -195 -228 -27 -20
-67 -55 -89 -77 -37 -38 -38 -42 -33 -93 14 -135 95 -177 220 -113 60 30 129
81 230 172 48 43 91 75 95 71 11 -11 -167 -176 -248 -230 -193 -128 -364 -126
-431 7 l-14 28 -45 -30 c-67 -45 -148 -73 -188 -65 -42 8 -117 80 -125 121
-14 74 44 224 135 346 31 42 47 73 42 78 -13 13 -112 -36 -204 -101 -98 -69
-274 -247 -327 -329 -23 -36 -56 -100 -74 -144 -18 -43 -39 -80 -46 -83 -18
-7 -53 25 -69 64 -26 60 10 250 82 437 142 367 478 821 685 925 73 36 98 38
154 11z m830 -520 l29 -30 -17 -53 c-9 -29 -32 -79 -52 -111 -19 -32 -35 -60
-35 -61 0 -2 24 -11 53 -21 84 -27 147 -63 157 -88 14 -38 -6 -84 -86 -196
-101 -142 -118 -205 -60 -232 31 -13 107 20 184 81 52 41 52 41 52 99 0 119
64 260 167 372 135 146 247 155 302 22 11 -26 10 -36 -5 -67 -23 -49 -119
-143 -218 -213 l-81 -58 -3 -64 c-2 -35 2 -76 9 -92 17 -42 65 -78 102 -78 70
0 211 88 346 215 39 37 76 65 83 62 18 -7 -138 -155 -229 -218 -120 -83 -175
-104 -269 -104 -69 0 -85 3 -117 25 -20 14 -47 44 -59 67 l-22 41 -57 -44
c-125 -96 -202 -116 -281 -72 -60 34 -81 76 -76 150 4 50 15 82 71 189 37 71
67 137 67 147 0 21 -34 56 -48 51 -5 -2 -40 -40 -77 -84 -129 -153 -195 -217
-195 -189 0 3 37 47 83 97 45 51 99 113 120 139 36 44 41 68 15 68 -6 0 -30
12 -54 27 -80 51 -82 111 -6 194 78 84 146 93 207 29z m-3401 -1461 c31 -24
36 -81 10 -111 -16 -17 -15 -19 8 -38 30 -23 40 -62 26 -102 -14 -39 -35 -48
-117 -48 l-71 0 0 160 0 160 59 0 c44 0 65 -5 85 -21z m235 6 c80 -41 54 -165
-34 -165 -19 0 -35 -3 -35 -6 0 -3 25 -35 56 -70 34 -39 50 -64 41 -64 -8 0
-40 29 -72 65 -31 36 -61 65 -66 65 -5 0 -9 -29 -9 -65 0 -37 -4 -65 -10 -65
-6 0 -10 60 -10 160 l0 160 55 0 c31 0 69 -7 84 -15z m302 -145 c45 -107 62
-160 53 -160 -7 0 -22 20 -33 45 l-20 45 -85 0 -84 0 -18 -45 c-9 -25 -23 -45
-31 -45 -8 0 -13 4 -11 8 77 192 134 312 147 312 11 0 36 -49 82 -160z m239
18 l105 -142 3 142 c4 200 22 185 22 -18 0 -136 -2 -160 -15 -160 -8 0 -61 62
-118 138 l-102 137 -3 -137 c-4 -197 -22 -178 -22 22 0 122 3 160 13 160 6 -1
59 -64 117 -142z m407 116 c72 -54 93 -146 51 -218 -34 -58 -76 -76 -175 -76
l-83 0 0 161 0 161 90 -4 c70 -3 96 -9 117 -24z m143 -134 c0 -100 -4 -160
-10 -160 -6 0 -10 60 -10 160 0 100 4 160 10 160 6 0 10 -60 10 -160z m200 18
l105 -142 3 142 c4 200 22 185 22 -18 0 -136 -2 -160 -15 -160 -8 0 -61 62
-118 138 l-102 137 -3 -137 c-4 -197 -22 -178 -22 22 0 122 3 160 13 160 6 -1
59 -64 117 -142z m426 126 c30 -14 74 -61 74 -78 0 -15 -24 -4 -42 19 -59 76
-181 71 -233 -8 -46 -70 -17 -173 57 -207 54 -24 72 -24 125 -1 41 19 65 46
78 89 6 21 4 22 -59 22 -37 0 -66 4 -66 10 0 6 32 10 76 10 l77 0 -6 -37 c-7
-42 -30 -77 -71 -107 -21 -16 -42 -21 -90 -21 -54 0 -68 4 -100 29 -126 95
-60 296 96 296 28 0 65 -7 84 -16z m400 -17 c30 -35 32 -95 5 -128 -15 -19
-32 -25 -83 -29 l-63 -5 -3 -62 c-2 -35 -7 -63 -12 -63 -6 0 -10 66 -10 161
l0 161 71 -4 c63 -3 74 -7 95 -31z m213 18 c16 -8 34 -28 41 -44 28 -69 -26
-134 -102 -122 -16 2 -6 -13 48 -75 34 -39 50 -64 41 -64 -8 0 -40 29 -72 65
-31 36 -61 65 -66 65 -5 0 -9 -29 -9 -65 0 -37 -4 -65 -10 -65 -6 0 -10 60
-10 160 l0 160 55 0 c31 0 69 -7 84 -15z m338 -12 c68 -50 88 -155 44 -226
-25 -41 -91 -77 -142 -77 -98 0 -176 88 -165 185 6 56 27 89 77 123 29 20 44
23 96 20 43 -3 71 -10 90 -25z m263 12 c48 -25 64 -79 38 -128 -19 -37 -40
-46 -100 -47 l-58 0 0 -65 c0 -37 -4 -65 -10 -65 -9 0 -11 40 -11 215 0 115
-6 105 56 105 31 0 69 -7 85 -15z m331 -8 c39 -26 79 -97 79 -142 0 -54 -40
-117 -90 -142 -55 -28 -101 -29 -156 -2 -112 54 -120 215 -14 286 46 32 134
32 181 0z m260 10 c15 -11 39 -49 39 -61 0 -3 -7 -6 -15 -6 -8 0 -15 5 -15 12
0 22 -33 48 -63 48 -39 0 -67 -25 -67 -60 0 -32 22 -53 72 -69 59 -19 88 -47
88 -86 0 -18 -3 -41 -6 -50 -9 -22 -56 -45 -93 -45 -35 0 -91 43 -91 71 0 27
12 23 32 -11 28 -50 99 -50 131 1 17 27 -1 68 -36 83 -17 8 -49 21 -70 30 -90
38 -62 156 37 156 23 0 48 -6 57 -13z m290 -150 c45 -106 63 -157 53 -157 -7
0 -22 20 -33 45 l-20 45 -84 0 -85 0 -19 -45 c-10 -25 -24 -45 -31 -45 -8 0
-12 4 -10 8 78 196 133 312 147 310 9 -2 41 -64 82 -161z m129 13 l0 -150 70
0 c40 0 70 -4 70 -10 0 -6 -33 -10 -80 -10 l-80 0 0 160 c0 100 4 160 10 160
6 0 10 -57 10 -150z"/>
<path d="M7408 6380 c-52 -43 -180 -242 -165 -256 8 -8 150 111 183 152 41 52
54 78 54 108 0 35 -26 34 -72 -4z"/>
<path d="M7723 5525 c-104 -28 -247 -87 -330 -137 -85 -51 -185 -149 -220
-215 -73 -136 -43 -243 69 -243 140 0 292 126 453 375 53 83 135 227 135 238
0 10 -4 9 -107 -18z"/>
<path d="M10958 7035 c-159 -84 -447 -467 -589 -783 l-29 -64 52 44 c107 88
467 456 537 548 82 106 130 193 133 242 3 30 0 33 -27 35 -17 2 -51 -9 -77
-22z"/>
<path d="M11356 6379 c-52 -45 -177 -241 -163 -255 7 -8 149 111 182 152 44
55 54 76 55 107 0 37 -29 36 -74 -4z"/>
<path d="M11799 6577 c-40 -33 -60 -70 -62 -115 -1 -37 15 -72 34 -72 15 0 79
143 79 176 0 40 -14 43 -51 11z"/>
<path d="M12452 6388 c-18 -13 -51 -48 -73 -78 -41 -55 -115 -190 -103 -190
14 0 126 94 169 142 54 60 81 109 72 132 -9 22 -27 20 -65 -6z"/>
<path d="M8350 5105 l0 -65 35 0 c68 0 107 37 91 88 -8 24 -47 42 -91 42 l-35
0 0 -65z"/>
<path d="M8350 4955 l0 -65 59 0 c51 0 62 3 75 22 9 12 16 34 16 49 0 41 -28
59 -93 59 l-57 0 0 -65z"/>
<path d="M8590 5094 l0 -77 50 5 c62 6 90 29 90 74 0 45 -38 74 -96 74 l-44 0
0 -76z"/>
<path d="M8888 5070 l-36 -90 74 0 c41 0 74 3 74 8 0 11 -61 155 -69 165 -4 4
-23 -33 -43 -83z"/>
<path d="M9470 5029 l0 -141 81 4 c78 3 82 4 113 39 44 48 53 96 27 154 -25
57 -78 84 -163 85 l-58 0 0 -141z"/>
<path d="M10688 5164 c-5 -4 -8 -38 -8 -76 l0 -68 53 0 c43 0 58 5 75 23 49
52 16 117 -64 124 -27 3 -52 1 -56 -3z"/>
<path d="M10920 5094 l0 -77 50 5 c62 6 90 29 90 74 0 45 -38 74 -96 74 l-44
0 0 -76z"/>
<path d="M11210 5152 c-128 -70 -76 -268 70 -266 89 1 144 62 137 152 -3 45
-9 59 -39 89 -46 45 -113 55 -168 25z"/>
<path d="M11520 5095 l0 -75 54 0 c47 0 57 4 75 26 24 30 26 43 10 77 -14 31
-48 47 -99 47 l-40 0 0 -75z"/>
<path d="M11813 5154 c-52 -26 -76 -74 -71 -140 4 -43 11 -61 33 -84 60 -62
150 -62 210 0 38 40 47 128 17 176 -37 58 -124 80 -189 48z"/>
<path d="M12398 5073 l-36 -88 70 -3 c39 -2 72 -1 75 2 5 4 -55 155 -66 169
-4 4 -23 -32 -43 -80z"/>
</g>
</svg>
